$MeshFormat
4.1 0 8
$EndMeshFormat
$PhysicalNames
6
1 2 "Boundary_Source"
1 3 "xmin"
1 4 "xmax"
1 5 "ymin"
1 6 "ymax"
2 1 "Background"
$EndPhysicalNames
$Entities
6 6 1 0
5 0 0.4 0 0 
6 0 0.6 0 0 
7 0 0 0 0 
8 1 0 0 0 
9 1 1 0 0 
10 0 1 0 0 
1 -0.0005001001000000116 -0.0005001001 -0.0005001001 1.0005001001 0.0005001001 0.0005001001 1 5 2 7 -8 
2 0.9994998999 -0.0005001001000000116 -0.0005001001 1.0005001001 1.0005001001 0.0005001001 1 4 2 8 -9 
3 -0.0005001001000000116 0.9994998999 -0.0005001001 1.0005001001 1.0005001001 0.0005001001 1 6 2 9 -10 
4 -0.0005001001 0.5994998999 -0.0005001001 0.0005001001 1.0005001001 0.0005001001 1 3 2 10 -6 
5 -0.0004001003999999998 0.3995998996 -0.0004001003999999998 0.0004001003999999998 0.6004001004 0.0004001003999999998 1 2 2 6 -5 
6 -0.0005001001 -0.0005001001000000116 -0.0005001001 0.0005001001 0.4005001001 0.0005001001 1 3 2 5 -7 
1 -1.000000000583867e-07 -1.000000000583867e-07 -1.000000000620633e-07 1.0000001 1.0000001 1.000000000620633e-07 1 1 6 1 2 3 4 5 6 
$EndEntities
$Nodes
13 601 1 601
0 5 0 1
1
0 0.4 0
0 6 0 1
2
0 0.6 0
0 7 0 1
3
0 0 0
0 8 0 1
4
1 0 0
0 9 0 1
5
1 1 0
0 10 0 1
6
0 1 0
1 1 0 21
7
8
9
10
11
12
13
14
15
16
17
18
19
20
21
22
23
24
25
26
27
0.04145798629374482 0 0
0.9570460346474228 0 0
0.8694635175469062 0 0
0.7787020217291698 0 0
0.6860605850176946 0 0
0.5929119297378264 0 0
0.4994681723038354 0 0
0.4056618022702497 0 0
0.3115084823023252 0 0
0.2178224510810186 0 0
0.1271014685886705 0 0
0.08291597258748963 0 0
0.1712869645898514 0 0
0.2643579375721857 0 0
0.3586590270324648 0 0
0.4526645775080346 0 0
0.5462717670996362 0 0
0.6395520923760165 0 0
0.7325690776593727 0 0
0.824834965798967 0 0
0.9140920692948454 0 0
1 2 0 21
28
29
30
31
32
33
34
35
36
37
38
39
40
41
42
43
44
45
46
47
48
1 0.0439283597952809 0
1 0.9560811510211111 0
1 0.8670608633894098 0
1 0.7760849567430579 0
1 0.6840104495562029 0
1 0.5915909793294821 0
1 0.5004897839136402 0
1 0.4109364902046363 0
1 0.3197734320510532 0
1 0.2261541334164382 0
1 0.1334415415997004 0
1 0.08785671959056181 0
1 0.179026363608839 0
1 0.2732819032240374 0
1 0.3662649608780689 0
1 0.4556080195312037 0
1 0.5453715482960766 0
1 0.6378104103628877 0
1 0.7302104887495182 0
1 0.8219594247365974 0
1 0.9121623020422222 0
1 3 0 23
49
50
51
52
53
54
55
56
57
58
59
60
61
62
63
64
65
66
67
68
69
70
71
0.9591430290739914 1 0
0.03964566561075178 1 0
0.1209723461188782 1 0
0.2055540711720001 1 0
0.2908950516852657 1 0
0.3756162823297876 1 0
0.4594821332460957 1 0
0.5427142784107981 1 0
0.6264082302674272 1 0
0.7106607133773997 1 0
0.7945931196964076 1 0
0.8773028991873285 1 0
0.9182860581479828 1 0
0.8363197402266742 1 0
0.752866499166141 1 0
0.6684549275886584 1 0
0.5843615329461959 1 0
0.5010670238754003 1 0
0.417897242616791 1 0
0.3333353220427843 1 0
0.2484547813277473 1 0
0.1626533610162527 1 0
0.07929133122150367 1 0
1 4 0 9
72
73
74
75
76
77
78
79
80
0 0.9611069072369363 0
0 0.882332411939784 0
0 0.8016986412709557 0
0 0.72043309877457 0
0 0.639959962206462 0
0 0.9222138144738724 0
0 0.8424510094056954 0
0 0.760946273136216 0
0 0.6799199244129239 0
1 5 0 5
81
82
83
84
85
0 0.5668802333127498 0
0 0.5004023550481561 0
0 0.4335221217354064 0
0 0.5337604666254996 0
0 0.4670442434708126 0
1 6 0 9
86
87
88
89
90
91
92
93
94
0 0.3596375151574451 0
0 0.2788703853125928 0
0 0.1981383662029562 0
0 0.1180526720388757 0
0 0.03914717599106721 0
0 0.3192750303148902 0
0 0.2384657403102953 0
0 0.1578109920956171 0
0 0.07829435198213441 0
2 1 0 507
95
96
97
98
99
100
101
102
103
104
105
106
107
108
109
110
111
112
113
114
115
116
117
118
119
120
121
122
123
124
125
126
127
128
129
130
131
132
133
134
135
136
137
138
139
140
141
142
143
144
145
146
147
148
149
150
151
152
153
154
155
156
157
158
159
160
161
162
163
164
165
166
167
168
169
170
171
172
173
174
175
176
177
178
179
180
181
182
183
184
185
186
187
188
189
190
191
192
193
194
195
196
197
198
199
200
201
202
203
204
205
206
207
208
209
210
211
212
213
214
215
216
217
218
219
220
221
222
223
224
225
226
227
228
229
230
231
232
233
234
235
236
237
238
239
240
241
242
243
244
245
246
247
248
249
250
251
252
253
254
255
256
257
258
259
260
261
262
263
264
265
266
267
268
269
270
271
272
273
274
275
276
277
278
279
280
281
282
283
284
285
286
287
288
289
290
291
292
293
294
295
296
297
298
299
300
301
302
303
304
305
306
307
308
309
310
311
312
313
314
315
316
317
318
319
320
321
322
323
324
325
326
327
328
329
330
331
332
333
334
335
336
337
338
339
340
341
342
343
344
345
346
347
348
349
350
351
352
353
354
355
356
357
358
359
360
361
362
363
364
365
366
367
368
369
370
371
372
373
374
375
376
377
378
379
380
381
382
383
384
385
386
387
388
389
390
391
392
393
394
395
396
397
398
399
400
401
402
403
404
405
406
407
408
409
410
411
412
413
414
415
416
417
418
419
420
421
422
423
424
425
426
427
428
429
430
431
432
433
434
435
436
437
438
439
440
441
442
443
444
445
446
447
448
449
450
451
452
453
454
455
456
457
458
459
460
461
462
463
464
465
466
467
468
469
470
471
472
473
474
475
476
477
478
479
480
481
482
483
484
485
486
487
488
489
490
491
492
493
494
495
496
497
498
499
500
501
502
503
504
505
506
507
508
509
510
511
512
513
514
515
516
517
518
519
520
521
522
523
524
525
526
527
528
529
530
531
532
533
534
535
536
537
538
539
540
541
542
543
544
545
546
547
548
549
550
551
552
553
554
555
556
557
558
559
560
561
562
563
564
565
566
567
568
569
570
571
572
573
574
575
576
577
578
579
580
581
582
583
584
585
586
587
588
589
590
591
592
593
594
595
596
597
598
599
600
601
0.4827021788517322 0.2626201970444141 0
0.4786486146039041 0.3069451850971054 0
0.4736743589172789 0.3516474845372762 0
0.4672274017649413 0.3968457574460125 0
0.4582034217433658 0.4424570794146143 0
0.4224910924919233 0.5233200342728234 0
0.402990494668949 0.5498070127128709 0
0.3683210452341106 0.5638485678061457 0
0.339509243093902 0.5603050234868747 0
0.3065355664470168 0.5568890666652729 0
0.2711698903488131 0.5537380974327262 0
0.2343195127777007 0.5508346561392968 0
0.1964820766175568 0.548104336968443 0
0.1578561819507675 0.5453829224645536 0
0.1187612917329725 0.5426585336917282 0
0.07935445998516417 0.5398370558024562 0
0.03974102404732917 0.5368402294065092 0
0.4013257146303376 0.4710531778936601 0
0.3610763999116853 0.4603147392089548 0
0.3215034744969223 0.4525938313967801 0
0.2819479256042985 0.4467978328320792 0
0.2422044791176882 0.4423175143520632 0
0.2022300312819121 0.438803470676447 0
0.1620413237613311 0.4360705909470451 0
0.1216792572758179 0.4340621670248561 0
0.08118626697099662 0.4328410083751262 0
0.04060961073527666 0.4326014614751424 0
0.3693134745849698 0.5906836173969622 0
0.3385574624035435 0.5910137336830082 0
0.3051487812124443 0.5899251373568499 0
0.2698241293089271 0.588215304295537 0
0.2331783993226888 0.5862211650018573 0
0.1956892203254601 0.5841067322326845 0
0.1571359840323985 0.5815131691018079 0
0.1182100826741111 0.5787110332319987 0
0.07899042079038228 0.5754894836060115 0
0.03956480413574981 0.5715887927435377 0
0.4759281924148508 0.5886471667731809 0
0.438698223829488 0.6041083662847375 0
0.490412311423197 0.6291175572374117 0
0.4507572218819458 0.6396588093756489 0
0.5008502033139919 0.670008006101741 0
0.4601751847443428 0.677476069455421 0
0.5089425604125338 0.7110038507936584 0
0.4677760187157239 0.7164844136162846 0
0.5155679852590744 0.7520720123285519 0
0.4741309169884435 0.7561762403178696 0
0.5212214238472698 0.7932145845944706 0
0.479620888750562 0.7962987004243299 0
0.5262084871205417 0.8344329209621973 0
0.4845066266082648 0.8367142263579606 0
0.530730133824135 0.8757222854902242 0
0.4889727126137292 0.8773377880724641 0
0.5349271883810258 0.917079770896538 0
0.4931571583153437 0.9181144983293947 0
0.5388985676353824 0.9585051311116988 0
0.4971655970369627 0.9590098630169464 0
0.5727758543550641 0.5632765808985691 0
0.5813378732982188 0.6111454896905334 0
0.5889541259162843 0.6566821555592958 0
0.5955512025007604 0.7008858007274993 0
0.6013026680005703 0.7443239707884799 0
0.606394299537908 0.7873116614007807 0
0.610983604569921 0.8300316967695561 0
0.6151953353861818 0.8725953670853875 0
0.6191252648169464 0.9150765282191375 0
0.6228436306152382 0.9575297813658922 0
0.6235359065632957 0.5586364717416658 0
0.629154353412836 0.6061305892097452 0
0.634872640452501 0.6521237348917459 0
0.6402589832845127 0.6970178205433814 0
0.6452085507067573 0.7411618355216895 0
0.6497425201307303 0.7848051278599139 0
0.653924284514224 0.8281176990172451 0
0.6578265815651665 0.8712171836089858 0
0.6615166206522043 0.9141875574347857 0
0.6650500869876462 0.9570961785497185 0
0.6728271967184578 0.5556715390884893 0
0.676736250701548 0.6026594115168536 0
0.6810271869109137 0.6487086806504847 0
0.6853290241880072 0.6939441475656083 0
0.6894685869857892 0.7385446333468494 0
0.6933895872679545 0.782673484430551 0
0.6970968879941112 0.8264618029899895 0
0.7006257382813916 0.8700121918694987 0
0.7040253136841333 0.9134062523855395 0
0.7073516040901139 0.9567138555345094 0
0.7210122496461245 0.5535601470885988 0
0.7238548248673813 0.6001402290019771 0
0.7271023006925761 0.6461222538813943 0
0.7304998326722212 0.6915228850336542 0
0.7338902711545625 0.7364196491688005 0
0.7371968372188352 0.7809060299032139 0
0.7403978476126626 0.8250708946069748 0
0.7435078928074974 0.8689934384083143 0
0.7465673501165362 0.9127442179739701 0
0.7496447458743249 0.9563903127199007 0
0.7684148368259922 0.5519362110223363 0
0.7705215527904363 0.5982206594457418 0
0.7729826917807823 0.6441185251314422 0
0.7756324593498539 0.6896081562244867 0
0.7783493432999485 0.7347105234551289 0
0.7810623579912903 0.7794689304904978 0
0.7837429262293332 0.8239349248592972 0
0.7863956473200625 0.8681620304545239 0
0.7890524382933749 0.9122069293391653 0
0.7917676634169338 0.9561299603233581 0
0.8152603507081487 0.5506049665170318 0
0.816807665532279 0.5966833134817253 0
0.8186480485355851 0.6425188178238876 0
0.8206675495571053 0.6880757997648156 0
0.8227775531641008 0.7333417711264952 0
0.8249220218522917 0.7783228861386421 0
0.8270755819048503 0.8230391975407324 0
0.8292395463577836 0.867517545576989 0
0.8314428245204174 0.911799743170351 0
0.8337509846242129 0.9559363335441156 0
0.8617090652212044 0.5494381599817346 0
0.8627885414841638 0.5953825460325045 0
0.8641207638261202 0.6411902139549926 0
0.865593737530753 0.6868249736266636 0
0.8671473790272402 0.7322479896030739 0
0.8687442596885558 0.7774338033393458 0
0.8703657823473532 0.8223736345058079 0
0.8720113453251963 0.8670653775999899 0
0.8736977894092601 0.9115344041627949 0
0.8754550083270642 0.9558175924621529 0
0.9078877713883946 0.5483168807787042 0
0.908515009394734 0.594211456863337 0
0.9094493092248435 0.640026039674517 0
0.910431266657811 0.6857742328718754 0
0.9114606667258012 0.7313791918524895 0
0.9125230746141277 0.7767777095397402 0
0.913608745342042 0.8219420169946922 0
0.9147162069882917 0.8668219240914176 0
0.9158541696479262 0.9114404957923875 0
0.9170369745351092 0.9557883289590472 0
0.9539405084217497 0.5470649889067228 0
0.9542847409179597 0.5929505611041102 0
0.95473421418175 0.6389151519993955 0
0.9552224854326027 0.6848546353804518 0
0.9557369244448162 0.7307007351417623 0
0.9562689928711765 0.7763388104859783 0
0.9568146380001471 0.8217732862980693 0
0.9573714858782683 0.8668180230357369 0
0.9579440149938055 0.9115876288802637 0
0.9585331579848387 0.9558722431693375 0
0.5651971342142439 0.4589823006166539 0
0.6180188770721777 0.4598093441690468 0
0.668625997147648 0.4596729044251051 0
0.7177562241582516 0.4592060979745704 0
0.7659021160668528 0.4586284381216283 0
0.8133727569997473 0.4580220649831988 0
0.8603764600092461 0.4574188294871743 0
0.9070679428103139 0.4568267680099635 0
0.953573864144648 0.456237476105005 0
0.5680540417587147 0.4088768335669634 0
0.6189010722258891 0.410951056142968 0
0.6687043908467986 0.4117937539477614 0
0.7175395401080534 0.4120132716130934 0
0.7656077517535317 0.4119201802669534 0
0.8130953754721657 0.4116758310740389 0
0.8601577143593371 0.4113789394265084 0
0.9069236132304961 0.4111053109075508 0
0.9535046837655703 0.4109348286458031 0
0.5713231751728779 0.3608645571957659 0
0.6207393837420936 0.3632200438498873 0
0.6696766070524172 0.3644877870733993 0
0.7180387202091031 0.3651087060370747 0
0.7658599646771387 0.3653481606200262 0
0.813222886958463 0.3653739171999253 0
0.8602238257996803 0.3653107565272202 0
0.9069585857782845 0.3652814586630036 0
0.9535202923248584 0.3654659429237968 0
0.5745043148660944 0.3141891961452796 0
0.623000237851059 0.3164895790567974 0
0.671167036576088 0.3177788723813622 0
0.7190358657469318 0.3185580417578663 0
0.7665406008414872 0.3189721786274008 0
0.8136944522269097 0.3191508156724474 0
0.8605468006351001 0.3192056285581688 0
0.9071634507465153 0.3192458870188979 0
0.9536203756817639 0.3193959267410318 0
0.5774573133973432 0.2683097971426563 0
0.6252387184728898 0.2702412273150797 0
0.6729101680279994 0.2715310669318185 0
0.720362767605101 0.2723445086219605 0
0.7675477009204884 0.2728140095036402 0
0.8144528070191607 0.27304204952397 0
0.8610977673724078 0.2731111427409134 0
0.9075268155780967 0.2730988723472612 0
0.9538018660090023 0.273099834896237 0
0.5802275322844753 0.2229906025653487 0
0.6275516285301518 0.2245714439597091 0
0.6748313041079088 0.2257138340127364 0
0.7219270280984619 0.2264441799252036 0
0.7688139599418558 0.2268811074847041 0
0.8154575100266069 0.2270826349221886 0
0.8618567864747575 0.2270917947084956 0
0.9080410207899006 0.2269341319692862 0
0.9540638694341771 0.2266186156820928 0
0.5828588395004759 0.1780513627742952 0
0.6298812487518181 0.179287926831188 0
0.6768632232709364 0.1802090534046475 0
0.7236795819274379 0.1808116538207256 0
0.7703042058390457 0.1811688327094614 0
0.8166900755202324 0.1813063023532097 0
0.8628186236251049 0.1812313505464442 0
0.9087086838926928 0.1809179674645769 0
0.9544094430681614 0.1802733851639134 0
0.5854001771777072 0.1333676063979513 0
0.6322269389788363 0.1342730974648573 0
0.6789951870234391 0.1349552643232771 0
0.7256039758466127 0.1354051473257348 0
0.7720124395630565 0.1356628078424186 0
0.8181606716864693 0.1357326653368231 0
0.8640023529284031 0.1356013113722594 0
0.9095508990897583 0.135225770234682 0
0.9548482983197646 0.1345268169053169 0
0.5878986884815613 0.08884666159649078 0
0.6346069428067078 0.08943658540013882 0
0.6812350872272819 0.08987987201203487 0
0.7277086118272535 0.09017301384337939 0
0.7739601643640938 0.09033254056080711 0
0.8199144468501726 0.09035267563271973 0
0.8654561654416389 0.09021196947743777 0
0.9106208581734504 0.0898577454995915 0
0.9554097170947341 0.08917194738164075 0
0.5903954104838774 0.04441379679559637 0
0.63704381652499 0.04470329873170047 0
0.6835933015343854 0.0449161917488686 0
0.7300174420181875 0.04505863642809166 0
0.7761856211747453 0.0451320484343543 0
0.8220552697261132 0.04513054433857024 0
0.8672594135022159 0.04504090459859005 0
0.9120344823816513 0.04483582701749563 0
0.9561321233102886 0.04447467564180769 0
0.3881041464750138 0.506868400470539 0
0.3523386634093711 0.4962910927668527 0
0.3154331160107857 0.4889163169241147 0
0.2775971595050896 0.4834315410374007 0
0.2390359584197643 0.4791540242603305 0
0.1999194437081424 0.4757077383371172 0
0.1603801674420194 0.4728852458901888 0
0.1205344196369278 0.4705976318497956 0
0.08047381157859233 0.4688369137688298 0
0.04027392900744785 0.4676513471772155 0
0.3760605881019995 0.5374247970245029 0
0.3445722475752099 0.5293661532139932 0
0.310147494312162 0.5235227524629051 0
0.2738488864665454 0.5189747095015993 0
0.2363202443932875 0.515249243764906 0
0.197946510981603 0.5120694429331485 0
0.1589547840807619 0.5092511625772439 0
0.1195455622564415 0.506710833167663 0
0.07985477544818535 0.504396281228715 0
0.03998075890846941 0.502290470446174 0
0.4502826610157726 0.04319385869470697 0
0.4035768853168659 0.04271881061695796 0
0.356939416346203 0.04224177899049268 0
0.3103858467175718 0.04178119024265965 0
0.2640370431971155 0.04135116593520725 0
0.2181289624541192 0.04095890447519703 0
0.1727057037575465 0.04060174176193616 0
0.1283717178833837 0.04027079345619504 0
0.08470787612327976 0.03993947745496064 0
0.04217975485655734 0.03957799003042311 0
0.4479091919423704 0.08636124242521363 0
0.4014512591119078 0.08539932905939611 0
0.3551718251868446 0.08443927130970624 0
0.3091142587166967 0.08351838927658804 0
0.2633604066245455 0.08266486834918522 0
0.218026008883844 0.08189150233343802 0
0.1732011058485495 0.08119466590898972 0
0.129063180585045 0.08055368633551242 0
0.08553031305777202 0.07992209317614148 0
0.04261681832666851 0.07922286303391918 0
0.4454295763068294 0.1295262061990463 0
0.3991852339557908 0.1280457188230044 0
0.3532311206399348 0.1265791367526012 0
0.3076012218169102 0.1251858016451107 0
0.2623376663738191 0.1239073259800443 0
0.2174909576458293 0.1227626316553441 0
0.1731062342851692 0.1217478441867302 0
0.1292294060826192 0.1208358126050426 0
0.0858192974483581 0.1199712949141584 0
0.04280477449358743 0.1190719526059712 0
0.4427377679665432 0.1727074932404333 0
0.3966774627012951 0.1706528457890474 0
0.3510240353902365 0.1686371796211959 0
0.3057862934023281 0.1667456701472615 0
0.2609646630196149 0.1650334210253041 0
0.2165598023240873 0.163525277938643 0
0.1725708344813477 0.1622184867409356 0
0.1289866318294714 0.1610817955595426 0
0.08575949290730565 0.1600525428920662 0
0.04280785650829071 0.1590251208172949 0
0.439717751517525 0.2159184163853725 0
0.393822452153525 0.2132027024737055 0
0.3484672911701594 0.2105729780194116 0
0.3036208071860114 0.2081438457110121 0
0.2592365881188602 0.2059827250851989 0
0.2152698890090158 0.2041177270703291 0
0.1716802086937223 0.2025456232179689 0
0.1284258923685883 0.2012362889026353 0
0.08544987601721273 0.2001302141366715 0
0.04267489099124322 0.1991351841089276 0
0.436228453860298 0.2591648142461272 0
0.3905011012436543 0.255657500036494 0
0.3454775234421588 0.2523233255940074 0
0.3010616295210769 0.249305317754567 0
0.2571497674385461 0.2466759904491869 0
0.2136513747630468 0.2444589595745276 0
0.1704936423891113 0.2426477602425239 0
0.1276144772853509 0.2412140041514004 0
0.08495279976956478 0.240105852792647 0
0.04244115653088263 0.2392363824913449 0
0.4320805527680814 0.3024342925289704 0
0.3865687836557717 0.2979442296956895 0
0.3419651535916912 0.2937894549146104 0
0.2980704634970447 0.2901272719616002 0
0.2547061645651847 0.2870132362789968 0
0.2117356783018104 0.2844511932845492 0
0.1690601183529598 0.282423948668042 0
0.1266060003226662 0.2809069532645049 0
0.08431470329555435 0.2798671321731739 0
0.04213186999039876 0.2792383908671914 0
0.4269979768819092 0.3456637857159265 0
0.3818438485509881 0.3399229372947775 0
0.3378383173416193 0.3348193772901693 0
0.2946203200945263 0.330471673011993 0
0.2519212023450659 0.3268739306897563 0
0.2095620074813535 0.3239824198110521 0
0.1674295330961719 0.3217579796917817 0
0.1254501634125624 0.3201827009185115 0
0.08357532557776204 0.3192631455589899 0
0.04176921181815924 0.3189997471991501 0
0.4205707750973768 0.3886590854088316 0
0.3761145384004456 0.3813329968789064 0
0.3330246429916404 0.3751863739625451 0
0.2907167114380773 0.3701641874625518 0
0.248837957470842 0.3661242554673865 0
0.2071891001970848 0.3629389425274969 0
0.1656628183414104 0.3605309698327576 0
0.1242015414048564 0.3588889684192152 0
0.0827762921569575 0.3580856081086433 0
0.04137556073662588 0.3582868149016373 0
0.4122168126219798 0.4308847953363389 0
0.3691904864753194 0.4217085711270411 0
0.3275229423314782 0.4145726345736 0
0.2864310726864509 0.409003590261373 0
0.2455467653393474 0.4046357359984485 0
0.2047041187589916 0.4012265837488224 0
0.163835994589317 0.3986456378873587 0
0.1229220516591278 0.396874686591037 0
0.08196387258182346 0.3960478080043032 0
0.04097750734331573 0.396613841862929 0
0.4139003424638197 0.9599383748782582 0
0.410100437191483 0.9199976230872121 0
0.406303434405357 0.8802412972446969 0
0.4023899648682134 0.8407535618652617 0
0.3982682547507276 0.8016510650501423 0
0.3938590310845032 0.763092073277759 0
0.3891048978639879 0.7253035634792085 0
0.3839987589658634 0.688616810000709 0
0.3786530125695653 0.6535104531718129 0
0.3734467867967436 0.6206309985470537 0
0.3720959805565116 0.9603190167689649 0
0.3686692953217864 0.9207538597768103 0
0.3652608748511034 0.8813799425486114 0
0.361798611694101 0.8422907970423826 0
0.3582297534071845 0.8036043414094913 0
0.3545295445498963 0.7654717815019144 0
0.35071465344155 0.7280851868600515 0
0.3468747577455574 0.6916858205222898 0
0.3432264685007117 0.6565552338885485 0
0.3401995958323775 0.6229625730657877 0
0.3302527539908561 0.9606200547344041 0
0.3272740258110296 0.9213433699729463 0
0.324332684553429 0.8822493796899378 0
0.3213818796824987 0.8434307840164837 0
0.318400257859549 0.8049972294758911 0
0.3154012769857433 0.7670792716923625 0
0.3124431879324763 0.7298238734825729 0
0.3096514589072089 0.6933874443454624 0
0.3072476255469035 0.6579097036091818 0
0.3055813569345461 0.623457386420318 0
0.2883570192125604 0.9608344722991963 0
0.2858958496860557 0.9217548033628159 0
0.2834715046045852 0.8828380732974651 0
0.2810569340401918 0.8441703452874891 0
0.2786540155637665 0.8058485073759898 0
0.2762990765679229 0.7679798002101104 0
0.2740694939291956 0.7306750845321689 0
0.2720919692584856 0.6940322508351624 0
0.2705533256060652 0.6581110066874949 0
0.2697016755868271 0.6228907141879672 0
0.2464309995562338 0.9609630463850775 0
0.2445314249438398 0.9219930712936121 0
0.2426516120528628 0.8831582816999155 0
0.2407707207266764 0.8445346693096012 0
0.2389098809369952 0.8062067001074001 0
0.2371209652855248 0.7682644058182896 0
0.235485833109756 0.7307943606054954 0
0.2341195321158036 0.693865384142578 0
0.2331690446668783 0.6575053256665861 0
0.2328031038194144 0.621672338761825 0
0.2044175066668639 0.9610149573576218 0
0.203192864904769 0.9220776014136209 0
0.2018765173771111 0.8832405205607621 0
0.2005050075852108 0.8445677073635695 0
0.1991314141405605 0.8061335857573552 0
0.1978225244664507 0.768019378925352 0
0.1966599628453956 0.7303030706957739 0
0.1957429341756578 0.6930472636675512 0
0.1951859408819972 0.6562818612021072 0
0.195116834473509 0.6199891053523788 0
0.1625466615296648 0.9610077341310824 0
0.1619886815616813 0.9220407553207679 0
0.1611926358803224 0.8831301235541511 0
0.1602734956309855 0.844325843103356 0
0.1593170740428338 0.8056943739974731 0
0.1584013170095633 0.7673173052069014 0
0.157604095926535 0.7292789818564044 0
0.1570068448294226 0.691654352518379 0
0.1566897164172599 0.6544943343302225 0
0.1567223150529911 0.6178057507770469 0
0.1211900568295744 0.9609695662145838 0
0.1210588537862627 0.9219329281252505 0
0.1206589755345432 0.8828900012679556 0
0.1201023958527361 0.8438777074977124 0
0.1194832710691954 0.804955053747744 0
0.1188794440123058 0.7662159421746327 0
0.118360438069644 0.7277659523828529 0
0.1179890098734278 0.6897065938139103 0
0.1178200586736581 0.6521376925499032 0
0.1178908656546961 0.6151343492559267 0
0.08021263971845748 0.9609397792650453 0
0.08042054921116749 0.9218279697156329 0
0.08029603577649926 0.8826041929406413 0
0.08000677874784444 0.8433116274613759 0
0.07964773731071459 0.8039866257546537 0
0.0792872625267964 0.7647616723044137 0
0.07897936425841132 0.7257772643824985 0
0.07876920796325874 0.6871633960549502 0
0.07869249399288447 0.6490978815614656 0
0.07876896380963516 0.6117783774797745 0
0.03999435403015691 0.9609701821101497 0
0.0401291483547765 0.9218436408036664 0
0.04010304029044577 0.8823834572430506 0
0.0399834605715205 0.8427573218669174 0
0.0398204481338248 0.8028720428192181 0
0.03965294839282327 0.7629949135502433 0
0.03951085379396324 0.7233168909643813 0
0.03941904244307259 0.683934753338405 0
0.03939830114750929 0.6451396150668967 0
0.03946303157071671 0.6072284957802436 0
0.4861456480294145 0.2185642033477395 0
0.4891727661125798 0.1746946859747052 0
0.491920943227567 0.1309504304685126 0
0.4944969984105826 0.08728236247958984 0
0.4969891767427809 0.04364640944571872 0
0.543711430993232 0.04405818028200633 0
0.5411782569293514 0.08812146447764017 0
0.5386032138639375 0.132249298570728 0
0.5359146575433572 0.1765049568709665 0
0.5330309098556867 0.2209675798537443 0
0.5298499521737206 0.2657456804250622 0
0.5262348934863218 0.3110073559142118 0
0.5219811297914632 0.3570491251028597 0
0.5167590661558895 0.4045314641300429 0
0.5098438487199872 0.4551634518022712 0
0.9537244141173007 0.5015833525777245 0
0.9073938057658864 0.5025431315197468 0
0.8608958892149345 0.5034411328520165 0
0.8140957320763141 0.5043570723994791 0
0.7668358393104234 0.5053549704808238 0
0.718896363357478 0.5064920594564387 0
0.6699148567180819 0.5078388793498283 0
0.6191621453646117 0.5095070785737041 0
0.5647174866758476 0.5117294123301046 0
0.4230217898059324 0.5730094838025411 0
0.454190872502801 0.5506529712332489 0
0.4057135811483162 0.6150697935609307 0
0.4140895509552542 0.6480666170712464 0
0.4215093173000465 0.6838906582023365 0
0.4279716096777616 0.7213975704466052 0
0.4336347498963548 0.7599481001852758 0
0.4386769808878854 0.7991766933883134 0
0.4432582609160662 0.8388644141509326 0
0.4475164607877122 0.8788724450600545 0
0.4515701587372188 0.9191042010058736 0
0.4555299162870973 0.9594955727620942 0
0.5807614327176633 0.9580052520729425 0
0.5769119011980628 0.916051870695286 0
0.5728101530532699 0.8741155402719377 0
0.5683818415711855 0.8321641101569567 0
0.563505119548726 0.7901533858129961 0
0.5580039440498128 0.7480125219084519 0
0.5516182365114949 0.705609446157322 0
0.5439386794648243 0.6626742970761049 0
0.5342446943756536 0.6185887625636932 0
0.5209720908489688 0.5716506106156829 0
0.3894396686544312 0.5669514031108741 0
0.4443377825852365 0.4870335674875841 0
0.3969184814837597 0.586922746499421 0
0.4988672734728932 0.5152928241010825 0
$EndNodes
$Elements
7 647 1 647
1 1 1 22
1 3 7 
2 7 18 
3 18 17 
4 17 19 
5 19 16 
6 16 20 
7 20 15 
8 15 21 
9 21 14 
10 14 22 
11 22 13 
12 13 23 
13 23 12 
14 12 24 
15 24 11 
16 11 25 
17 25 10 
18 10 26 
19 26 9 
20 9 27 
21 27 8 
22 8 4 
1 2 1 22
23 4 28 
24 28 39 
25 39 38 
26 38 40 
27 40 37 
28 37 41 
29 41 36 
30 36 42 
31 42 35 
32 35 43 
33 43 34 
34 34 44 
35 44 33 
36 33 45 
37 45 32 
38 32 46 
39 46 31 
40 31 47 
41 47 30 
42 30 48 
43 48 29 
44 29 5 
1 3 1 24
45 5 49 
46 49 61 
47 61 60 
48 60 62 
49 62 59 
50 59 63 
51 63 58 
52 58 64 
53 64 57 
54 57 65 
55 65 56 
56 56 66 
57 66 55 
58 55 67 
59 67 54 
60 54 68 
61 68 53 
62 53 69 
63 69 52 
64 52 70 
65 70 51 
66 51 71 
67 71 50 
68 50 6 
1 4 1 10
69 6 72 
70 72 77 
71 77 73 
72 73 78 
73 78 74 
74 74 79 
75 79 75 
76 75 80 
77 80 76 
78 76 2 
1 5 1 6
79 2 81 
80 81 84 
81 84 82 
82 82 85 
83 85 83 
84 83 1 
1 6 1 10
85 1 86 
86 86 91 
87 91 87 
88 87 92 
89 92 88 
90 88 93 
91 93 89 
92 89 94 
93 94 90 
94 90 3 
2 1 3 553
95 157 167 168 158 
96 158 168 169 159 
97 159 169 170 160 
98 160 170 171 161 
99 161 171 64 57 
100 574 573 172 162 
101 162 172 173 163 
102 163 173 174 164 
103 164 174 175 165 
104 165 175 176 166 
105 166 176 177 167 
106 167 177 178 168 
107 168 178 179 169 
108 169 179 180 170 
109 170 180 181 171 
110 171 181 58 64 
111 573 572 182 172 
112 172 182 183 173 
113 173 183 184 174 
114 174 184 185 175 
115 175 185 186 176 
116 176 186 187 177 
117 177 187 188 178 
118 178 188 189 179 
119 179 189 190 180 
120 180 190 191 181 
121 181 191 63 58 
122 572 571 192 182 
123 182 192 193 183 
124 183 193 194 184 
125 184 194 195 185 
126 185 195 196 186 
127 186 196 197 187 
128 187 197 198 188 
129 188 198 199 189 
130 189 199 200 190 
131 190 200 201 191 
132 191 201 59 63 
133 571 570 202 192 
134 192 202 203 193 
135 193 203 204 194 
136 194 204 205 195 
137 195 205 206 196 
138 196 206 207 197 
139 197 207 208 198 
140 198 208 209 199 
141 199 209 210 200 
142 200 210 211 201 
143 201 211 62 59 
144 570 569 212 202 
145 202 212 213 203 
146 203 213 214 204 
147 204 214 215 205 
148 205 215 216 206 
149 206 216 217 207 
150 207 217 218 208 
151 208 218 219 209 
152 209 219 220 210 
153 210 220 221 211 
154 211 221 60 62 
155 569 568 222 212 
156 212 222 223 213 
157 213 223 224 214 
158 214 224 225 215 
159 215 225 226 216 
160 216 226 227 217 
161 217 227 228 218 
162 218 228 229 219 
163 219 229 230 220 
164 220 230 231 221 
165 221 231 61 60 
166 568 567 232 222 
167 222 232 233 223 
168 223 233 234 224 
169 224 234 235 225 
170 225 235 236 226 
171 226 236 237 227 
172 227 237 238 228 
173 228 238 239 229 
174 229 239 240 230 
175 230 240 241 231 
176 231 241 49 61 
177 567 34 44 232 
178 232 44 33 233 
179 233 33 45 234 
180 234 45 32 235 
181 235 32 46 236 
182 236 46 31 237 
183 237 31 47 238 
184 238 47 30 239 
185 239 30 48 240 
186 240 48 29 241 
187 241 29 5 49 
188 601 566 242 575 
189 575 242 243 574 
190 574 243 244 573 
191 573 244 245 572 
192 572 245 246 571 
193 571 246 247 570 
194 570 247 248 569 
195 569 248 249 568 
196 568 249 250 567 
197 567 250 43 34 
198 566 565 251 242 
199 242 251 252 243 
200 243 252 253 244 
201 244 253 254 245 
202 245 254 255 246 
203 246 255 256 247 
204 247 256 257 248 
205 248 257 258 249 
206 249 258 259 250 
207 250 259 35 43 
208 565 564 260 251 
209 251 260 261 252 
210 252 261 262 253 
211 253 262 263 254 
212 254 263 264 255 
213 255 264 265 256 
214 256 265 266 257 
215 257 266 267 258 
216 258 267 268 259 
217 259 268 42 35 
218 564 563 269 260 
219 260 269 270 261 
220 261 270 271 262 
221 262 271 272 263 
222 263 272 273 264 
223 264 273 274 265 
224 265 274 275 266 
225 266 275 276 267 
226 267 276 277 268 
227 268 277 36 42 
228 563 562 278 269 
229 269 278 279 270 
230 270 279 280 271 
231 271 280 281 272 
232 272 281 282 273 
233 273 282 283 274 
234 274 283 284 275 
235 275 284 285 276 
236 276 285 286 277 
237 277 286 41 36 
238 562 561 287 278 
239 278 287 288 279 
240 279 288 289 280 
241 280 289 290 281 
242 281 290 291 282 
243 282 291 292 283 
244 283 292 293 284 
245 284 293 294 285 
246 285 294 295 286 
247 286 295 37 41 
248 561 560 296 287 
249 287 296 297 288 
250 288 297 298 289 
251 289 298 299 290 
252 290 299 300 291 
253 291 300 301 292 
254 292 301 302 293 
255 293 302 303 294 
256 294 303 304 295 
257 295 304 40 37 
258 560 559 305 296 
259 296 305 306 297 
260 297 306 307 298 
261 298 307 308 299 
262 299 308 309 300 
263 300 309 310 301 
264 301 310 311 302 
265 302 311 312 303 
266 303 312 313 304 
267 304 313 38 40 
268 559 558 314 305 
269 305 314 315 306 
270 306 315 316 307 
271 307 316 317 308 
272 308 317 318 309 
273 309 318 319 310 
274 310 319 320 311 
275 311 320 321 312 
276 312 321 322 313 
277 313 322 39 38 
278 558 557 323 314 
279 314 323 324 315 
280 315 324 325 316 
281 316 325 326 317 
282 317 326 327 318 
283 318 327 328 319 
284 319 328 329 320 
285 320 329 330 321 
286 321 330 331 322 
287 322 331 28 39 
288 557 23 12 323 
289 323 12 24 324 
290 324 24 11 325 
291 325 11 25 326 
292 326 25 10 327 
293 327 10 26 328 
294 328 26 9 329 
295 329 9 27 330 
296 330 27 8 331 
297 331 8 4 28 
298 601 599 99 566 
299 566 99 98 565 
300 565 98 97 564 
301 564 97 96 563 
302 563 96 95 562 
303 562 95 552 561 
304 561 552 553 560 
305 560 553 554 559 
306 559 554 555 558 
307 558 555 556 557 
308 557 556 13 23 
309 601 577 100 599 
310 577 576 101 100 
311 576 600 598 101 
312 599 100 332 112 
313 112 332 333 113 
314 113 333 334 114 
315 114 334 335 115 
316 115 335 336 116 
317 116 336 337 117 
318 117 337 338 118 
319 118 338 339 119 
320 119 339 340 120 
321 120 340 341 121 
322 121 341 85 83 
323 100 101 342 332 
324 332 342 343 333 
325 333 343 344 334 
326 334 344 345 335 
327 335 345 346 336 
328 336 346 347 337 
329 337 347 348 338 
330 338 348 349 339 
331 339 349 350 340 
332 340 350 351 341 
333 341 351 82 85 
334 101 598 102 342 
335 342 102 103 343 
336 343 103 104 344 
337 344 104 105 345 
338 345 105 106 346 
339 346 106 107 347 
340 347 107 108 348 
341 348 108 109 349 
342 349 109 110 350 
343 350 110 111 351 
344 351 111 84 82 
345 600 122 102 598 
346 122 123 103 102 
347 123 124 104 103 
348 124 125 105 104 
349 125 126 106 105 
350 126 127 107 106 
351 127 128 108 107 
352 128 129 109 108 
353 129 130 110 109 
354 130 131 111 110 
355 131 81 84 111 
356 13 556 352 22 
357 22 352 353 14 
358 14 353 354 21 
359 21 354 355 15 
360 15 355 356 20 
361 20 356 357 16 
362 16 357 358 19 
363 19 358 359 17 
364 17 359 360 18 
365 18 360 361 7 
366 7 361 90 3 
367 556 555 362 352 
368 352 362 363 353 
369 353 363 364 354 
370 354 364 365 355 
371 355 365 366 356 
372 356 366 367 357 
373 357 367 368 358 
374 358 368 369 359 
375 359 369 370 360 
376 360 370 371 361 
377 361 371 94 90 
378 555 554 372 362 
379 362 372 373 363 
380 363 373 374 364 
381 364 374 375 365 
382 365 375 376 366 
383 366 376 377 367 
384 367 377 378 368 
385 368 378 379 369 
386 369 379 380 370 
387 370 380 381 371 
388 371 381 89 94 
389 554 553 382 372 
390 372 382 383 373 
391 373 383 384 374 
392 374 384 385 375 
393 375 385 386 376 
394 376 386 387 377 
395 377 387 388 378 
396 378 388 389 379 
397 379 389 390 380 
398 380 390 391 381 
399 381 391 93 89 
400 553 552 392 382 
401 382 392 393 383 
402 383 393 394 384 
403 384 394 395 385 
404 385 395 396 386 
405 386 396 397 387 
406 387 397 398 388 
407 388 398 399 389 
408 389 399 400 390 
409 390 400 401 391 
410 391 401 88 93 
411 552 95 402 392 
412 392 402 403 393 
413 393 403 404 394 
414 394 404 405 395 
415 395 405 406 396 
416 396 406 407 397 
417 397 407 408 398 
418 398 408 409 399 
419 399 409 410 400 
420 400 410 411 401 
421 401 411 92 88 
422 95 96 412 402 
423 402 412 413 403 
424 403 413 414 404 
425 404 414 415 405 
426 405 415 416 406 
427 406 416 417 407 
428 407 417 418 408 
429 408 418 419 409 
430 409 419 420 410 
431 410 420 421 411 
432 411 421 87 92 
433 96 97 422 412 
434 412 422 423 413 
435 413 423 424 414 
436 414 424 425 415 
437 415 425 426 416 
438 416 426 427 417 
439 417 427 428 418 
440 418 428 429 419 
441 419 429 430 420 
442 420 430 431 421 
443 421 431 91 87 
444 97 98 432 422 
445 422 432 433 423 
446 423 433 434 424 
447 424 434 435 425 
448 425 435 436 426 
449 426 436 437 427 
450 427 437 438 428 
451 428 438 439 429 
452 429 439 440 430 
453 430 440 441 431 
454 431 441 86 91 
455 98 99 442 432 
456 432 442 443 433 
457 433 443 444 434 
458 434 444 445 435 
459 435 445 446 436 
460 436 446 447 437 
461 437 447 448 438 
462 438 448 449 439 
463 439 449 450 440 
464 440 450 451 441 
465 441 451 1 86 
466 99 599 112 442 
467 442 112 113 443 
468 443 113 114 444 
469 444 114 115 445 
470 445 115 116 446 
471 446 116 117 447 
472 447 117 118 448 
473 448 118 119 449 
474 449 119 120 450 
475 450 120 121 451 
476 451 121 83 1 
477 55 67 452 587 
478 587 452 453 586 
479 586 453 454 585 
480 585 454 455 584 
481 584 455 456 583 
482 583 456 457 582 
483 582 457 458 581 
484 581 458 459 580 
485 580 459 460 579 
486 579 460 461 578 
487 578 461 122 600 
488 67 54 462 452 
489 452 462 463 453 
490 453 463 464 454 
491 454 464 465 455 
492 455 465 466 456 
493 456 466 467 457 
494 457 467 468 458 
495 458 468 469 459 
496 459 469 470 460 
497 460 470 471 461 
498 461 471 123 122 
499 54 68 472 462 
500 462 472 473 463 
501 463 473 474 464 
502 464 474 475 465 
503 465 475 476 466 
504 466 476 477 467 
505 467 477 478 468 
506 468 478 479 469 
507 469 479 480 470 
508 470 480 481 471 
509 471 481 124 123 
510 68 53 482 472 
511 472 482 483 473 
512 473 483 484 474 
513 474 484 485 475 
514 475 485 486 476 
515 476 486 487 477 
516 477 487 488 478 
517 478 488 489 479 
518 479 489 490 480 
519 480 490 491 481 
520 481 491 125 124 
521 53 69 492 482 
522 482 492 493 483 
523 483 493 494 484 
524 484 494 495 485 
525 485 495 496 486 
526 486 496 497 487 
527 487 497 498 488 
528 488 498 499 489 
529 489 499 500 490 
530 490 500 501 491 
531 491 501 126 125 
532 69 52 502 492 
533 492 502 503 493 
534 493 503 504 494 
535 494 504 505 495 
536 495 505 506 496 
537 496 506 507 497 
538 497 507 508 498 
539 498 508 509 499 
540 499 509 510 500 
541 500 510 511 501 
542 501 511 127 126 
543 52 70 512 502 
544 502 512 513 503 
545 503 513 514 504 
546 504 514 515 505 
547 505 515 516 506 
548 506 516 517 507 
549 507 517 518 508 
550 508 518 519 509 
551 509 519 520 510 
552 510 520 521 511 
553 511 521 128 127 
554 70 51 522 512 
555 512 522 523 513 
556 513 523 524 514 
557 514 524 525 515 
558 515 525 526 516 
559 516 526 527 517 
560 517 527 528 518 
561 518 528 529 519 
562 519 529 530 520 
563 520 530 531 521 
564 521 531 129 128 
565 51 71 532 522 
566 522 532 533 523 
567 523 533 534 524 
568 524 534 535 525 
569 525 535 536 526 
570 526 536 537 527 
571 527 537 538 528 
572 528 538 539 529 
573 529 539 540 530 
574 530 540 541 531 
575 531 541 130 129 
576 71 50 542 532 
577 532 542 543 533 
578 533 543 544 534 
579 534 544 545 535 
580 535 545 546 536 
581 536 546 547 537 
582 537 547 548 538 
583 538 548 549 539 
584 539 549 550 540 
585 540 550 551 541 
586 541 551 131 130 
587 50 6 72 542 
588 542 72 77 543 
589 543 77 73 544 
590 544 73 78 545 
591 545 78 74 546 
592 546 74 79 547 
593 547 79 75 548 
594 548 75 80 549 
595 549 80 76 550 
596 550 76 2 551 
597 551 2 81 131 
598 156 166 167 157 
599 155 165 166 156 
600 154 164 165 155 
601 153 163 164 154 
602 152 162 163 153 
603 575 574 162 152 
604 588 161 57 65 
605 589 160 161 588 
606 590 159 160 589 
607 591 158 159 590 
608 592 157 158 591 
609 593 156 157 592 
610 594 155 156 593 
611 595 154 155 594 
612 596 153 154 595 
613 597 152 153 596 
614 601 575 152 597 
615 151 66 55 587 
616 150 56 66 151 
617 588 65 56 150 
618 149 151 587 586 
619 148 150 151 149 
620 589 588 150 148 
621 147 149 586 585 
622 146 148 149 147 
623 590 589 148 146 
624 145 147 585 584 
625 144 146 147 145 
626 591 590 146 144 
627 143 145 584 583 
628 142 144 145 143 
629 592 591 144 142 
630 141 143 583 582 
631 140 142 143 141 
632 593 592 142 140 
633 139 141 582 581 
634 138 140 141 139 
635 594 593 140 138 
636 137 139 581 580 
637 136 138 139 137 
638 595 594 138 136 
639 135 137 580 579 
640 134 136 137 135 
641 596 595 136 134 
642 133 135 579 578 
643 132 134 135 133 
644 597 596 134 132 
645 576 133 578 600 
646 577 132 133 576 
647 601 597 132 577 
$EndElements
