# Spyderweb mesh generated with Ragusa's Python code
# number of polygons: 136
# number of vertices: 145
# number of material attributes: 4
mtllib untitled.mtl 
o main_object 
v 0.13169019824375883 0.0 0.0
v 0.12166587878976258 0.050395657072760745 0.0
v 0.09311903219396264 0.09311903219396263 0.0
v 0.05039565707276075 0.12166587878976258 0.0
v 0.0 0.13169019824375883 0.0
v 0.2633803971759733 0.0 0.0
v 0.24333175821557523 0.10079131440898205 0.0
v 0.18623806487473693 0.1862380648747369 0.0
v 0.10079131440898206 0.24333175821557523 0.0
v 0.0 0.2633803971759733 0.0
v 0.3950706010597035 0.0 0.0
v 0.3649976422159919 0.15118697364006642 0.0
v 0.2793571010567616 0.27935710105676154 0.0
v 0.15118697364006642 0.3649976422159919 0.0
v 0.0 0.3950706010597035 0.0
v 0.4149254299918674 0.0 0.0
v 0.38334111228793105 0.15878508772484856 0.0
v 0.29339658523399353 0.2933965852339935 0.0
v 0.1587850877248486 0.38334111228793105 0.0
v 0.0 0.4149254299918674 0.0
v 0.4234346430644176 0.0 0.0
v 0.39120260008343766 0.16204142259017798 0.0
v 0.299413507500155 0.29941350750015494 0.0
v 0.162041422590178 0.39120260008343766 0.0
v 0.0 0.4234346430644176 0.0
v 0.4811757377804498 0.0 0.0
v 0.4445484156763755 0.18413798290462693 0.0
v 0.3402426271269961 0.34024262712699604 0.0
v 0.18413798290462696 0.4445484156763755 0.0
v 0.0 0.4811757377804498 0.0
v 0.5455 0.0 0.0
v 0.5207608480661682 0.21570620602192164 0.0
v 0.45030970388562797 0.45030970388562785 0.0
v 0.21570620602192164 0.5207608480661682 0.0
v 0.0 0.5455 0.0
v 0.58775 0.0 0.0
v 0.58775 0.24345402128478663 0.0
v 0.58775 0.58775 0.0
v 0.24345402128478666 0.58775 0.0
v 0.0 0.58775 0.0
v -0.24333175821557523 0.10079131440898205 0.0
v -0.2633803971759733 0.0 0.0
v -0.18623806487473693 0.1862380648747369 0.0
v -0.10079131440898206 0.24333175821557523 0.0
v -0.3649976422159919 0.15118697364006642 0.0
v -0.3950706010597035 0.0 0.0
v -0.2793571010567616 0.27935710105676154 0.0
v -0.15118697364006642 0.3649976422159919 0.0
v -0.38334111228793105 0.15878508772484856 0.0
v -0.4149254299918674 0.0 0.0
v -0.29339658523399353 0.2933965852339935 0.0
v -0.1587850877248486 0.38334111228793105 0.0
v -0.39120260008343766 0.16204142259017798 0.0
v -0.4234346430644176 0.0 0.0
v -0.299413507500155 0.29941350750015494 0.0
v -0.162041422590178 0.39120260008343766 0.0
v -0.4445484156763755 0.18413798290462693 0.0
v -0.4811757377804498 0.0 0.0
v -0.3402426271269961 0.34024262712699604 0.0
v -0.18413798290462696 0.4445484156763755 0.0
v -0.5207608480661682 0.21570620602192164 0.0
v -0.5455 0.0 0.0
v -0.45030970388562797 0.45030970388562785 0.0
v -0.21570620602192164 0.5207608480661682 0.0
v -0.58775 0.24345402128478663 0.0
v -0.58775 0.0 0.0
v -0.58775 0.58775 0.0
v -0.24345402128478666 0.58775 0.0
v 0.09311903219396264 -0.09311903219396263 0.0
v 0.12166587878976258 -0.050395657072760745 0.0
v 0.0 -0.13169019824375883 0.0
v 0.05039565707276075 -0.12166587878976258 0.0
v 0.24333175821557523 -0.10079131440898205 0.0
v 0.2793571010567616 -0.27935710105676154 0.0
v 0.15118697364006642 -0.3649976422159919 0.0
v 0.0 -0.3950706010597035 0.0
v 0.38334111228793105 -0.15878508772484856 0.0
v 0.29339658523399353 -0.2933965852339935 0.0
v 0.1587850877248486 -0.38334111228793105 0.0
v 0.0 -0.4149254299918674 0.0
v 0.39120260008343766 -0.16204142259017798 0.0
v 0.299413507500155 -0.29941350750015494 0.0
v 0.162041422590178 -0.39120260008343766 0.0
v 0.0 -0.4234346430644176 0.0
v 0.4445484156763755 -0.18413798290462693 0.0
v 0.3402426271269961 -0.34024262712699604 0.0
v 0.18413798290462696 -0.4445484156763755 0.0
v 0.0 -0.4811757377804498 0.0
v 0.5207608480661682 -0.21570620602192164 0.0
v 0.45030970388562797 -0.45030970388562785 0.0
v 0.21570620602192164 -0.5207608480661682 0.0
v 0.0 -0.5455 0.0
v 0.58775 -0.24345402128478663 0.0
v 0.58775 -0.58775 0.0
v 0.24345402128478666 -0.58775 0.0
v 0.0 -0.58775 0.0
v -0.09311903219396264 -0.09311903219396263 0.0
v -0.12166587878976258 -0.050395657072760745 0.0
v -0.05039565707276075 -0.12166587878976258 0.0
v -0.24333175821557523 -0.10079131440898205 0.0
v -0.18623806487473693 -0.1862380648747369 0.0
v -0.10079131440898206 -0.24333175821557523 0.0
v -0.3649976422159919 -0.15118697364006642 0.0
v -0.2793571010567616 -0.27935710105676154 0.0
v -0.15118697364006642 -0.3649976422159919 0.0
v -0.299413507500155 -0.29941350750015494 0.0
v -0.162041422590178 -0.39120260008343766 0.0
v -0.4445484156763755 -0.18413798290462693 0.0
v -0.3402426271269961 -0.34024262712699604 0.0
v -0.18413798290462696 -0.4445484156763755 0.0
v -0.5207608480661682 -0.21570620602192164 0.0
v -0.45030970388562797 -0.45030970388562785 0.0
v -0.21570620602192164 -0.5207608480661682 0.0
v -0.58775 -0.24345402128478663 0.0
v -0.58775 -0.58775 0.0
v -0.24345402128478666 -0.58775 0.0
v 0.63 0.0 0.0
v 0.6300000000000001 0.26095454429504994 0.0
v 0.63 0.63 0.0
v 0.26095454429504994 0.6300000000000001 0.0
v 0.0 0.63 0.0
v -0.6300000000000001 0.26095454429504994 0.0
v -0.63 0.0 0.0
v -0.63 0.63 0.0
v -0.26095454429504994 0.6300000000000001 0.0
v 0.6300000000000001 -0.26095454429504994 0.0
v 0.63 -0.63 0.0
v 0.26095454429504994 -0.6300000000000001 0.0
v 0.0 -0.63 0.0
v 0.0 0.0 0.0
v -0.09311903219396264 0.09311903219396263 0.0
v -0.12166587878976258 0.050395657072760745 0.0
v -0.13169019824375883 0.0 0.0
v -0.05039565707276075 0.12166587878976258 0.0
v 0.18623806487473693 -0.1862380648747369 0.0
v 0.10079131440898206 -0.24333175821557523 0.0
v 0.0 -0.2633803971759733 0.0
v 0.3649976422159919 -0.15118697364006642 0.0
v -0.38334111228793105 -0.15878508772484856 0.0
v -0.29339658523399353 -0.2933965852339935 0.0
v -0.1587850877248486 -0.38334111228793105 0.0
v -0.39120260008343766 -0.16204142259017798 0.0
v -0.6300000000000001 -0.26095454429504994 0.0
v -0.63 -0.63 0.0
v -0.26095454429504994 -0.6300000000000001 0.0
vn 0.0000 0.0000 1.0000 
s 1 
g matfuel 
usemtl Mat_fuel 
f 3//1 130//1 1//1 2//1 
f 5//1 130//1 3//1 4//1 
f 1//1 6//1 7//1 2//1 
f 2//1 7//1 8//1 3//1 
f 3//1 8//1 9//1 4//1 
f 4//1 9//1 10//1 5//1 
f 6//1 11//1 12//1 7//1 
f 7//1 12//1 13//1 8//1 
f 8//1 13//1 14//1 9//1 
f 9//1 14//1 15//1 10//1 
f 11//1 16//1 17//1 12//1 
f 12//1 17//1 18//1 13//1 
f 13//1 18//1 19//1 14//1 
f 14//1 19//1 20//1 15//1 
f 131//1 132//1 133//1 130//1 
f 5//1 134//1 131//1 130//1 
f 133//1 132//1 41//1 42//1 
f 132//1 131//1 43//1 41//1 
f 131//1 134//1 44//1 43//1 
f 134//1 5//1 10//1 44//1 
f 42//1 41//1 45//1 46//1 
f 41//1 43//1 47//1 45//1 
f 43//1 44//1 48//1 47//1 
f 44//1 10//1 15//1 48//1 
f 46//1 45//1 49//1 50//1 
f 45//1 47//1 51//1 49//1 
f 47//1 48//1 52//1 51//1 
f 48//1 15//1 20//1 52//1 
f 69//1 70//1 1//1 130//1 
f 71//1 72//1 69//1 130//1 
f 1//1 70//1 73//1 6//1 
f 70//1 69//1 135//1 73//1 
f 69//1 72//1 136//1 135//1 
f 72//1 71//1 137//1 136//1 
f 6//1 73//1 138//1 11//1 
f 73//1 135//1 74//1 138//1 
f 135//1 136//1 75//1 74//1 
f 136//1 137//1 76//1 75//1 
f 11//1 138//1 77//1 16//1 
f 138//1 74//1 78//1 77//1 
f 74//1 75//1 79//1 78//1 
f 75//1 76//1 80//1 79//1 
f 97//1 130//1 133//1 98//1 
f 71//1 130//1 97//1 99//1 
f 133//1 42//1 100//1 98//1 
f 98//1 100//1 101//1 97//1 
f 97//1 101//1 102//1 99//1 
f 99//1 102//1 137//1 71//1 
f 42//1 46//1 103//1 100//1 
f 100//1 103//1 104//1 101//1 
f 101//1 104//1 105//1 102//1 
f 102//1 105//1 76//1 137//1 
f 46//1 50//1 139//1 103//1 
f 103//1 139//1 140//1 104//1 
f 104//1 140//1 141//1 105//1 
f 105//1 141//1 80//1 76//1 
g matfuel clad 
usemtl Mat_fuel clad 
f 21//1 26//1 27//1 22//1 
f 22//1 27//1 28//1 23//1 
f 23//1 28//1 29//1 24//1 
f 24//1 29//1 30//1 25//1 
f 54//1 53//1 57//1 58//1 
f 53//1 55//1 59//1 57//1 
f 55//1 56//1 60//1 59//1 
f 56//1 25//1 30//1 60//1 
f 21//1 81//1 85//1 26//1 
f 81//1 82//1 86//1 85//1 
f 82//1 83//1 87//1 86//1 
f 83//1 84//1 88//1 87//1 
f 54//1 58//1 108//1 142//1 
f 142//1 108//1 109//1 106//1 
f 106//1 109//1 110//1 107//1 
f 107//1 110//1 88//1 84//1 
g matfuel gap 
usemtl Mat_fuel gap 
f 16//1 21//1 22//1 17//1 
f 17//1 22//1 23//1 18//1 
f 18//1 23//1 24//1 19//1 
f 19//1 24//1 25//1 20//1 
f 50//1 49//1 53//1 54//1 
f 49//1 51//1 55//1 53//1 
f 51//1 52//1 56//1 55//1 
f 52//1 20//1 25//1 56//1 
f 16//1 77//1 81//1 21//1 
f 77//1 78//1 82//1 81//1 
f 78//1 79//1 83//1 82//1 
f 79//1 80//1 84//1 83//1 
f 50//1 54//1 142//1 139//1 
f 139//1 142//1 106//1 140//1 
f 140//1 106//1 107//1 141//1 
f 141//1 107//1 84//1 80//1 
g matmoderator 
usemtl Mat_moderator 
f 26//1 31//1 32//1 27//1 
f 27//1 32//1 33//1 28//1 
f 28//1 33//1 34//1 29//1 
f 29//1 34//1 35//1 30//1 
f 31//1 36//1 37//1 32//1 
f 32//1 37//1 38//1 33//1 
f 33//1 38//1 39//1 34//1 
f 34//1 39//1 40//1 35//1 
f 36//1 117//1 118//1 37//1 
f 37//1 118//1 119//1 38//1 
f 38//1 119//1 120//1 39//1 
f 39//1 120//1 121//1 40//1 
f 58//1 57//1 61//1 62//1 
f 57//1 59//1 63//1 61//1 
f 59//1 60//1 64//1 63//1 
f 60//1 30//1 35//1 64//1 
f 62//1 61//1 65//1 66//1 
f 61//1 63//1 67//1 65//1 
f 63//1 64//1 68//1 67//1 
f 64//1 35//1 40//1 68//1 
f 66//1 65//1 122//1 123//1 
f 65//1 67//1 124//1 122//1 
f 67//1 68//1 125//1 124//1 
f 68//1 40//1 121//1 125//1 
f 26//1 85//1 89//1 31//1 
f 85//1 86//1 90//1 89//1 
f 86//1 87//1 91//1 90//1 
f 87//1 88//1 92//1 91//1 
f 31//1 89//1 93//1 36//1 
f 89//1 90//1 94//1 93//1 
f 90//1 91//1 95//1 94//1 
f 91//1 92//1 96//1 95//1 
f 36//1 93//1 126//1 117//1 
f 93//1 94//1 127//1 126//1 
f 94//1 95//1 128//1 127//1 
f 95//1 96//1 129//1 128//1 
f 58//1 62//1 111//1 108//1 
f 108//1 111//1 112//1 109//1 
f 109//1 112//1 113//1 110//1 
f 110//1 113//1 92//1 88//1 
f 62//1 66//1 114//1 111//1 
f 111//1 114//1 115//1 112//1 
f 112//1 115//1 116//1 113//1 
f 113//1 116//1 96//1 92//1 
f 66//1 123//1 143//1 114//1 
f 114//1 143//1 144//1 115//1 
f 115//1 144//1 145//1 116//1 
f 116//1 145//1 129//1 96//1 
