$MeshFormat
4.1 0 8
$EndMeshFormat
$PhysicalNames
2
2 1 "SrcCasing"
2 2 "SrcMat"
$EndPhysicalNames
$Entities
2 2 2 0
2 3.2 3 0 0 
3 3.3 3 0 0 
2 2.799817223583595 2.799715905705151 -0.0003001000999999997 3.2003001001 3.200253434120041 0.0003001000999999997 0 2 2 -2 
3 2.699764081306597 2.69984430162835 -0.0003001000999999997 3.3003001001 3.300284054319239 0.0003001000999999997 0 2 3 -3 
1 2.700064081406596 2.700144301728349 -1.00000000628037e-07 3.300000100000001 3.29998405421924 1.00000000628037e-07 1 1 2 3 -2 
2 2.80004268869455 2.800096170271523 -1.000000008881784e-07 3.200000100000001 3.199989402540274 1.000000008881784e-07 1 2 1 2 
$EndEntities
$Nodes
6 105 1 105
0 2 0 1
1
3.2 3 0
0 3 0 1
2
3.3 3 0
1 2 0 15
3
4
5
6
7
8
9
10
11
12
13
14
15
16
17
3.182494626583847 3.081827325924914 0
3.065372226241962 3.189014475731807 0
2.914595819883856 3.180848350887392 0
2.81383002999575 3.073080382241862 0
2.814121059332847 2.926182526347367 0
2.915088035380029 2.81892002246417 0
3.065609727258517 2.811067833101235 0
3.182527579381338 2.918246206417137 0
3.133042887319778 3.14933047289022 0
2.987643821883543 3.199617947245117 0
2.853692950642447 3.136360724947789 0
2.800000439436882 2.999580745232973 0
2.854202881757859 2.863094191824133 0
2.987984748843957 2.800361241890115 0
3.133163172348106 2.850776779520785 0
1 3 0 23
18
19
20
21
22
23
24
25
26
27
28
29
30
31
32
33
34
35
36
37
38
39
40
3.287790131579322 3.084716233187957 0
3.287862995021252 2.915531685837855 0
3.1988419740815 2.775362805075891 0
3.057612255080877 2.705583920166551 0
2.907999385657733 2.714455105174956 0
2.781469821196502 2.794465183114609 0
2.709358901551981 2.9256511473328 0
2.709053821624129 3.07314589044147 0
2.780496933767888 3.204495486294199 0
2.907317954479588 3.285324444165151 0
3.057259804909471 3.294484829391481 0
3.198453091308279 3.224980822627591 0
3.252154398896291 3.162536639307111 0
3.129794800974781 3.270468685137331 0
2.981010492009885 3.299398394428382 0
2.839421820211515 3.253406093407039 0
2.735874842073525 3.142259976628407 0
2.700000315479969 2.9995649277276 0
2.736643035929998 2.856322898568242 0
2.840466631707449 2.745934842213197 0
2.981207194130472 2.700589194504356 0
3.130264402125439 2.729757173011194 0
3.252434026017367 2.837897987339259 0
2 1 0 24
41
42
43
44
45
46
47
48
49
50
51
52
53
54
55
56
57
58
59
60
61
62
63
64
3.192598643108035 3.155933556098666 0
3.13141884414728 3.209899579013776 0
3.131713787236773 2.790266976265989 0
3.192798599182737 2.844337383430022 0
2.846557385426981 3.194883409177414 0
2.794783896357986 3.139310350788098 0
2.795422958843929 2.859708545196187 0
2.847334756732654 2.804514517018665 0
2.984595971487215 2.750475218197235 0
2.915965364109935 2.77749486760795 0
2.750000377458425 2.999572836480286 0
2.772392136908207 3.069441593634193 0
2.984327156946714 3.24950817083675 0
2.915442271186848 3.222195790007082 0
2.772711668151178 2.929640690838237 0
3.057873000546997 3.229703874925264 0
3.058154879361993 2.770371097231612 0
3.25 3 0
3.221399299591369 2.922168691715011 0
3.221299321554017 3.077966778049333 0
3.171664029063617 3.194111932444888 0
3.171953866830305 2.80614397995708 0
2.809663204309163 3.177342264994412 0
2.810437516465103 2.821783977535191 0
2 2 0 41
65
66
67
68
69
70
71
72
73
74
75
76
77
78
79
80
81
82
83
84
85
86
87
88
89
90
91
92
93
94
95
96
97
98
99
100
101
102
103
104
105
3.085477608807143 2.905180978776804 0
3.040576637961898 2.87470319528553 0
2.993645996449301 2.943607699413233 0
2.965689522462625 2.971609050552638 0
2.938379145151331 2.999844303123102 0
3.022366122166489 2.971215351972607 0
2.993999767553194 2.999913084102914 0
2.965624200582551 3.028154921022607 0
3.050444045481552 2.99996589834162 0
3.022315016672784 3.028671193871971 0
2.99353227721379 3.056231199557154 0
3.118945600161366 2.949445859390259 0
2.944226381479523 2.87794255226416 0
2.902597029344284 2.90984411521339 0
2.872660766164604 2.952582392177852 0
2.872504191622385 3.04690960121405 0
2.902328241525713 3.089771299308886 0
2.943926974967589 3.121829200464231 0
3.04037720754741 3.125270091861884 0
3.08535877545627 3.094833271247814 0
3.118896392095679 3.050581180899712 0
3.078575963385154 2.972308064812891 0
3.051401520393305 2.941314684758643 0
3.020090262841536 2.91522207714013 0
2.911133386823335 2.973415548391692 0
2.936698962684376 2.943058187106432 0
2.966431240505516 2.916433922719361 0
2.991587029614021 2.863123253395778 0
2.911055701860807 3.026197070262931 0
2.936550685575682 3.056641423357267 0
2.96624270220614 3.083361226397527 0
2.859848116619514 2.999718233004832 0
3.13322282070475 3.000013173966588 0
3.019939658741597 3.084685639791603 0
3.051311538157369 3.058632337749509 0
3.078540033651708 3.027668012709101 0
2.991319000180617 3.13677343826913 0
2.894263387315368 2.999778241634348 0
2.992556084479576 3.101359461651321 0
3.0964374882719 2.999997506088111 0
2.992758386134569 2.898509121789944 0
$EndNodes
$Elements
2 92 1 92
2 1 3 44
1 37 22 50 48 
2 48 50 8 15 
3 50 49 16 8 
4 22 38 49 50 
5 34 25 52 46 
6 46 52 6 13 
7 52 51 14 6 
8 25 35 51 52 
9 12 53 54 5 
10 5 54 45 13 
11 54 27 33 45 
12 53 32 27 54 
13 14 51 55 7 
14 7 55 47 15 
15 55 24 36 47 
16 51 35 24 55 
17 31 28 56 42 
18 42 56 4 11 
19 56 53 12 4 
20 28 32 53 56 
21 16 49 57 9 
22 9 57 43 17 
23 57 21 39 43 
24 49 38 21 57 
25 40 19 59 44 
26 44 59 10 17 
27 59 58 1 10 
28 19 2 58 59 
29 1 58 60 3 
30 3 60 41 11 
31 60 18 30 41 
32 58 2 18 60 
33 30 29 61 41 
34 41 61 42 11 
35 29 31 42 61 
36 39 20 62 43 
37 43 62 44 17 
38 20 40 44 62 
39 33 26 63 45 
40 45 63 46 13 
41 26 34 46 63 
42 36 23 64 47 
43 47 64 48 15 
44 23 37 48 64 
2 2 3 48
45 65 87 88 66 
46 66 88 105 92 
47 105 88 67 91 
48 91 67 68 90 
49 90 68 69 89 
50 89 69 93 102 
51 88 87 70 67 
52 67 70 71 68 
53 68 71 72 69 
54 69 72 94 93 
55 87 86 73 70 
56 70 73 74 71 
57 71 74 75 72 
58 72 75 95 94 
59 86 104 100 73 
60 73 100 99 74 
61 74 99 98 75 
62 75 98 103 95 
63 76 86 87 65 
64 97 104 86 76 
65 9 66 92 16 
66 17 65 66 9 
67 10 76 65 17 
68 1 97 76 10 
69 77 92 105 91 
70 8 16 92 77 
71 78 77 91 90 
72 15 8 77 78 
73 79 78 90 89 
74 7 15 78 79 
75 96 79 89 102 
76 14 7 79 96 
77 80 96 102 93 
78 6 14 96 80 
79 81 80 93 94 
80 13 6 80 81 
81 82 81 94 95 
82 5 13 81 82 
83 101 82 95 103 
84 12 5 82 101 
85 83 101 103 98 
86 4 12 101 83 
87 84 83 98 99 
88 11 4 83 84 
89 85 84 99 100 
90 3 11 84 85 
91 97 85 100 104 
92 1 3 85 97 
$EndElements
